<svg width="624" height="624" xmlns="http://www.w3.org/2000/svg">
 <!-- Created with Method Draw - http://github.com/duopixel/Method-Draw/ -->

 <g>
  <title>background</title>
  <rect x="-1" y="-1" width="626" height="626" id="canvas_background" fill="#fff"/>
  <g id="canvasGrid" display="none">
   <rect id="svg_1" width="100%" height="100%" x="0" y="0" stroke-width="0" fill="green"/>
  </g>
 </g>
 <g>
  <title>Layer 1</title>
  <g id="svg_7">
   <path fill="#ff7f00" d="m311.69137,3.35806c-170.37036,0 -308.33331,138.27159 -308.33331,308.64195s137.96295,308.64195 308.33331,308.64195c170.679,0 308.95059,-138.27159 308.95059,-308.64195s-138.27159,-308.64195 -308.95059,-308.64195zm0.30864,555.55551c-136.41974,0 -246.91356,-110.49382 -246.91356,-246.91356s110.49382,-246.91356 246.91356,-246.91356s246.91356,110.49382 246.91356,246.91356s-110.49382,246.91356 -246.91356,246.91356z" id="svg_4"/>
   <path fill="#ff7f00" d="m327.43211,157.67904l-46.29629,0l0,185.18517l162.03702,97.22221l23.14815,-37.96296l-138.88888,-82.4074l0,-162.03702z" id="svg_6"/>
  </g>
 </g>
</svg>