<svg width="624" height="624" xmlns="http://www.w3.org/2000/svg">
 <!-- Created with Method Draw - http://github.com/duopixel/Method-Draw/ -->

 <g>
  <title>background</title>
  <rect fill="#ffffff" id="canvas_background" height="626" width="626" y="-1" x="-1"/>
 </g>
 <g>
  <title>Layer 1</title>
  <g id="svg_8">
   <circle fill="#ff0000" transform="matrix(30.864195176112844,0,0,30.864195176112844,0,0) " id="svg_5" r="1.5" cy="7.608801" cx="13.576401"/>
   <circle fill="#ff0000" transform="matrix(30.864195176112844,0,0,30.864195176112844,0,0) " id="svg_6" r="1.5" cy="7.608801" cx="6.576401"/>
   <path fill="#ff0000" id="svg_7" d="m310.691369,3.35806c-170.370357,0 -308.33331,138.271594 -308.33331,308.641952s137.962952,308.641952 308.33331,308.641952c170.678999,0 308.950594,-138.271594 308.950594,-308.641952s-138.271594,-308.641952 -308.950594,-308.641952zm0.308642,555.555513c-136.419743,0 -246.913561,-110.493819 -246.913561,-246.913561s110.493819,-246.913561 246.913561,-246.913561s246.913561,110.493819 246.913561,246.913561s-110.493819,246.913561 -246.913561,246.913561zm0,-185.185171c-71.913575,0 -133.333323,44.753083 -158.024679,108.024683l51.543206,0c21.296295,-36.728392 60.802464,-61.72839 106.481473,-61.72839s84.876537,24.999998 106.481473,61.72839l51.543206,0c-24.691356,-63.2716 -86.111105,-108.024683 -158.024679,-108.024683z"/>
  </g>
 </g>
</svg>